<svg width="80" height="80" viewBox="0 0 80 80" fill="none" xmlns="http://www.w3.org/2000/svg">
<rect width="80" height="80" rx="40" fill="#F8FCFB"/>
<path fill-rule="evenodd" clip-rule="evenodd" d="M32.7505 33.1392C32.9755 32.9222 33.2808 32.8003 33.599 32.8003H46.399C46.7173 32.8003 47.0225 32.9222 47.2476 33.1392L53.6476 39.3106C53.8726 39.5276 53.999 39.822 53.999 40.1289V55.5574C53.999 56.6827 53.5355 57.7619 52.7103 58.5576C51.8851 59.3533 50.766 59.8003 49.599 59.8003H30.399C29.2321 59.8003 28.1129 59.3533 27.2878 58.5576C26.4626 57.7619 25.999 56.6827 25.999 55.5574V40.1289C25.999 39.822 26.1255 39.5276 26.3505 39.3106L32.7505 33.1392ZM34.0961 35.1146L30.0961 38.9717H49.902L45.902 35.1146H34.0961ZM51.599 41.286H28.399V55.5574C28.399 56.0689 28.6097 56.5595 28.9848 56.9211C29.3599 57.2828 29.8686 57.486 30.399 57.486H49.599C50.1295 57.486 50.6382 57.2828 51.0132 56.9211C51.3883 56.5595 51.599 56.0689 51.599 55.5574V41.286ZM33.599 47.4574C32.9363 47.4574 32.399 46.9394 32.399 46.3003C32.399 45.6612 32.9363 45.1432 33.599 45.1432H39.999C40.6618 45.1432 41.199 45.6612 41.199 46.3003C41.199 46.9394 40.6618 47.4574 39.999 47.4574H33.599Z" fill="#489D90"/>
<path fill-rule="evenodd" clip-rule="evenodd" d="M39.199 21C39.8618 21 40.399 21.5373 40.399 22.2V27C40.399 27.6627 39.8618 28.2 39.199 28.2C38.5363 28.2 37.999 27.6627 37.999 27V24.6V22.2C37.999 21.5373 38.5363 21 39.199 21Z" fill="#489D90"/>
<path fill-rule="evenodd" clip-rule="evenodd" d="M43.7706 29.5475C43.3446 29.0399 43.4109 28.2829 43.9186 27.8569L47.5956 24.7716C48.1033 24.3456 48.8602 24.4118 49.2862 24.9195C49.7122 25.4272 49.6459 26.1841 49.1383 26.6101L47.2998 28.1528L45.4612 29.6955C44.9536 30.1215 44.1966 30.0552 43.7706 29.5475Z" fill="#489D90"/>
<path fill-rule="evenodd" clip-rule="evenodd" d="M34.286 29.5475C34.712 29.0399 34.6458 28.2829 34.1381 27.8569L30.4611 24.7716C29.9534 24.3456 29.1965 24.4118 28.7705 24.9195C28.3445 25.4272 28.4107 26.1841 28.9184 26.6101L30.7569 28.1528L32.5954 29.6955C33.1031 30.1215 33.86 30.0552 34.286 29.5475Z" fill="#489D90"/>
</svg>
