<svg width="16" height="16" viewBox="0 0 16 16" fill="none" xmlns="http://www.w3.org/2000/svg">
<path d="M6.16647 14.6668L5.8998 12.5335C5.75536 12.4779 5.61914 12.4113 5.49114 12.3335C5.36314 12.2557 5.23825 12.1724 5.11647 12.0835L3.13314 12.9168L1.2998 9.75016L3.01647 8.45016C3.00536 8.37238 2.9998 8.29727 2.9998 8.22483V7.7755C2.9998 7.70305 3.00536 7.62794 3.01647 7.55016L1.2998 6.25016L3.13314 3.0835L5.11647 3.91683C5.23869 3.82794 5.36647 3.74461 5.4998 3.66683C5.63314 3.58905 5.76647 3.52238 5.8998 3.46683L6.16647 1.3335H9.83314L10.0998 3.46683C10.2442 3.52238 10.3805 3.58905 10.5085 3.66683C10.6365 3.74461 10.7614 3.82794 10.8831 3.91683L12.8665 3.0835L14.6998 6.25016L12.9831 7.55016C12.9942 7.62794 12.9998 7.70305 12.9998 7.7755V8.22483C12.9998 8.29727 12.9887 8.37238 12.9665 8.45016L14.6831 9.75016L12.8498 12.9168L10.8831 12.0835C10.7609 12.1724 10.6331 12.2557 10.4998 12.3335C10.3665 12.4113 10.2331 12.4779 10.0998 12.5335L9.83314 14.6668H6.16647ZM8.03314 10.3335C8.67758 10.3335 9.22758 10.1057 9.68314 9.65016C10.1387 9.19461 10.3665 8.64461 10.3665 8.00016C10.3665 7.35572 10.1387 6.80572 9.68314 6.35016C9.22758 5.89461 8.67758 5.66683 8.03314 5.66683C7.37758 5.66683 6.82469 5.89461 6.37447 6.35016C5.92425 6.80572 5.69936 7.35572 5.6998 8.00016C5.6998 8.64461 5.92469 9.19461 6.37447 9.65016C6.82425 10.1057 7.37714 10.3335 8.03314 10.3335ZM8.03314 9.00016C7.75536 9.00016 7.51914 8.90283 7.32447 8.70816C7.1298 8.5135 7.03269 8.2775 7.03314 8.00016C7.03314 7.72238 7.13047 7.48616 7.32514 7.2915C7.5198 7.09683 7.7558 6.99972 8.03314 7.00016C8.31092 7.00016 8.54714 7.0975 8.7418 7.29216C8.93647 7.48683 9.03358 7.72283 9.03314 8.00016C9.03314 8.27794 8.9358 8.51416 8.74114 8.70883C8.54647 8.9035 8.31047 9.00061 8.03314 9.00016ZM7.33314 13.3335H8.6498L8.88314 11.5668C9.22758 11.4779 9.54714 11.3473 9.8418 11.1748C10.1365 11.0024 10.4058 10.7942 10.6498 10.5502L12.2998 11.2335L12.9498 10.1002L11.5165 9.01683C11.572 8.86127 11.6109 8.6975 11.6331 8.5255C11.6554 8.3535 11.6665 8.17838 11.6665 8.00016C11.6665 7.82238 11.6554 7.6475 11.6331 7.4755C11.6109 7.3035 11.572 7.1395 11.5165 6.9835L12.9498 5.90016L12.2998 4.76683L10.6498 5.46683C10.4054 5.21127 10.136 4.9975 9.8418 4.8255C9.54758 4.6535 9.22803 4.52283 8.88314 4.4335L8.66647 2.66683H7.3498L7.11647 4.4335C6.77203 4.52238 6.45269 4.65305 6.15847 4.8255C5.86425 4.99794 5.59469 5.20616 5.3498 5.45016L3.6998 4.76683L3.0498 5.90016L4.48314 6.96683C4.42758 7.1335 4.38869 7.30016 4.36647 7.46683C4.34425 7.6335 4.33314 7.81127 4.33314 8.00016C4.33314 8.17794 4.34425 8.35016 4.36647 8.51683C4.38869 8.6835 4.42758 8.85016 4.48314 9.01683L3.0498 10.1002L3.6998 11.2335L5.3498 10.5335C5.59425 10.7891 5.8638 11.0031 6.15847 11.1755C6.45314 11.3479 6.77247 11.4784 7.11647 11.5668L7.33314 13.3335Z" fill="#707070"/>
</svg>
