<svg width="96" height="96" viewBox="0 0 96 96" fill="none" xmlns="http://www.w3.org/2000/svg">
<rect width="96" height="96" rx="48" fill="#F8FCFB"/>
<path d="M46.7306 26.0625C49.5067 26.0626 52.2544 26.6217 54.8098 27.7063C57.3651 28.791 59.6759 30.379 61.6042 32.3756C63.5325 34.3723 65.0389 36.7367 66.0336 39.328C67.0282 41.9192 67.4907 44.6841 67.3936 47.4579C66.3104 46.9879 65.142 46.7463 63.9612 46.7482V46.7344C63.9601 43.1792 62.8587 39.7115 60.8083 36.8069C58.7578 33.9023 55.8587 31.703 52.5086 30.5109C49.1585 29.3187 45.5215 29.192 42.0966 30.1481C38.6716 31.1042 35.6264 33.0964 33.3786 35.8512C31.1309 38.6061 29.7908 41.9888 29.5421 45.5352C29.2934 49.0817 30.1483 52.6182 31.9895 55.6596C33.8308 58.7011 36.5682 61.0986 39.8262 62.5231C43.0842 63.9477 46.7033 64.3296 50.187 63.6164V67.1168C47.3663 67.5937 44.4773 67.4803 41.7027 66.7836C38.9282 66.0869 36.3284 64.8222 34.0678 63.0695C31.8072 61.3167 29.935 59.114 28.5696 56.6007C27.2042 54.0875 26.3753 51.3182 26.1354 48.4682C25.8954 45.6182 26.2496 42.7495 27.1756 40.0434C28.1015 37.3373 29.5791 34.8527 31.5148 32.7468C33.4505 30.6409 35.8023 28.9595 38.4214 27.809C41.0404 26.6584 43.8698 26.0637 46.7306 26.0625ZM44.146 50.3244L54.0364 40.4088C54.3397 40.1024 54.7469 39.9208 55.1776 39.9C55.6083 39.8791 56.0312 40.0205 56.3627 40.2961C56.6942 40.5718 56.9104 40.9617 56.9684 41.3888C57.0264 41.816 56.9221 42.2494 56.6761 42.6034L56.4762 42.8446L45.3659 53.9799C45.0808 54.2652 44.7046 54.4415 44.3028 54.4781C43.901 54.5146 43.4992 54.409 43.1673 54.1797L42.926 53.9833L36.8953 47.954C36.59 47.6502 36.4097 47.243 36.3898 46.8128C36.3698 46.3827 36.5118 45.9606 36.7877 45.6299C37.0636 45.2991 37.4534 45.0837 37.8803 45.026C38.3072 44.9684 38.7402 45.0727 39.0939 45.3184L39.3352 45.5147L44.146 50.3244Z" fill="#489D90"/>
<path d="M67.5144 55.7143V55.2723C67.5137 54.1578 67.1296 53.0876 66.444 52.2897C65.7584 51.4917 64.8255 51.029 63.8438 51H63.6562C62.6745 51.029 61.7416 51.4917 61.056 52.2897C60.3704 53.0876 59.9863 54.1578 59.9856 55.2723V55.7143H57.1298C57.0954 55.7143 57.0624 55.7298 57.038 55.7574C57.0137 55.7851 57 55.8225 57 55.8616V66.9107C57 67.067 57.0547 67.2169 57.1521 67.3274C57.2495 67.4379 57.3815 67.5 57.5192 67.5H69.9808C70.1185 67.5 70.2505 67.4379 70.3479 67.3274C70.4453 67.2169 70.5 67.067 70.5 66.9107V55.8616C70.5 55.8225 70.4863 55.7851 70.462 55.7574C70.4376 55.7298 70.4046 55.7143 70.3702 55.7143H67.5144ZM66.2163 55.7143H61.2837V55.3092C61.2837 53.7682 62.3679 52.4894 63.7257 52.4732C64.0515 52.47 64.3747 52.5399 64.6766 52.6791C64.9785 52.8183 65.2531 53.0239 65.4846 53.2841C65.7162 53.5443 65.9 53.854 66.0256 54.1952C66.1512 54.5364 66.216 54.9025 66.2163 55.2723V55.7143Z" fill="#489D90"/>
</svg>
