<svg width="16" height="16" viewBox="0 0 16 16" fill="none" xmlns="http://www.w3.org/2000/svg">
<path d="M8.5 1C4.912 1 2 3.912 2 7.5C2 11.088 4.912 14 8.5 14C12.088 14 15 11.088 15 7.5C15 3.912 12.088 1 8.5 1ZM5.4775 11.725C6.329 11.114 7.369 10.75 8.5 10.75C9.631 10.75 10.671 11.114 11.5225 11.725C10.671 12.336 9.631 12.7 8.5 12.7C7.369 12.7 6.329 12.336 5.4775 11.725ZM12.491 10.828C11.3525 9.93472 9.94715 9.44922 8.5 9.44922C7.05285 9.44922 5.64754 9.93472 4.509 10.828C3.727 9.89546 3.2989 8.71703 3.3 7.5C3.3 4.627 5.627 2.3 8.5 2.3C11.373 2.3 13.7 4.627 13.7 7.5C13.7 8.7675 13.245 9.9245 12.491 10.828Z" fill="#707070"/>
<path d="M8.5 3.6C7.2455 3.6 6.225 4.6205 6.225 5.875C6.225 7.1295 7.2455 8.15 8.5 8.15C9.7545 8.15 10.775 7.1295 10.775 5.875C10.775 4.6205 9.7545 3.6 8.5 3.6ZM8.5 6.85C7.9605 6.85 7.525 6.4145 7.525 5.875C7.525 5.3355 7.9605 4.9 8.5 4.9C9.0395 4.9 9.475 5.3355 9.475 5.875C9.475 6.4145 9.0395 6.85 8.5 6.85Z" fill="#707070"/>
</svg>
